# AST/ASF file generated using VICON BodyLanguage
# -----------------------------------------------
:version 1.10
:name VICON
:units
  mass 1.0
  length 0.45
  angle deg
:documentation
   .ast/.asf automatically generated from VICON data using
   VICON BodyBuilder and BodyLanguage model FoxedUp or BRILLIANT.MOD
:root
   order TX TY TZ RX RY RZ
   axis XYZ
   position 0 0 0  
   orientation 0 0 0 
:bonedata
  begin
     id 1 
     name lhipjoint
     direction 0.690799 -0.707083 0.151096 
     length 2.54797 
     axis 0 0 0  XYZ
  end
  begin
     id 2 
     name lfemur
     direction 0.34202 -0.939693 0  
     length 7.21646  
     axis 0 0 20  XYZ
    dof rx ry rz
    limits (-160.0 20.0)
           (-70.0 70.0)
           (-60.0 70.0)
  end
  begin
     id 3 
     name ltibia
     direction 0.34202 -0.939693 0   
     length 8.16759   
     axis 0 0 20   XYZ
    dof rx
    limits (-10.0 170.0)
  end
  begin
     id 4 
     name lfoot
     direction 0.0487203 -0.133858 0.989802   
     length 1.93375   
     axis -90 7.62852e-016 20   XYZ
    dof rx rz
    limits (-45.0 90.0)
           (-70.0 20.0)
  end
  begin
     id 5 
     name ltoes
     direction 1.53453e-011 -4.21783e-011 1   
     length 0.979747   
     axis -90 7.62852e-016 20   XYZ
    dof rx
    limits (-90.0 20.0)
  end
  begin
     id 6 
     name rhipjoint
     direction -0.694693 -0.703425 0.150315   
     length 2.56122  
     axis 0 0 0  XYZ 
  end
  begin
     id 7 
     name rfemur
     direction -0.34202 -0.939693 0   
     length 7.36786   
     axis 0 0 -20   XYZ
    dof rx ry rz
    limits (-160.0 20.0)
           (-70.0 70.0)
           (-70.0 60.0)
  end
  begin
     id 8 
     name rtibia
     direction -0.34202 -0.939693 0   
     length 8.07288   
     axis 0 0 -20   XYZ
    dof rx
    limits (-10.0 170.0)
 end
 begin
     id 9 
     name rfoot
     direction -0.0428397 -0.117701 0.992125   
     length 1.88295  
     axis -90 -7.62852e-016 -20   XYZ
    dof rx rz
    limits (-45.0 90.0)
           (-20.0 70.0)
  end
  begin
     id 10 
     name rtoes
     direction -1.53456e-011 -4.2187e-011 1   
     length 0.955578   
     axis -90 -7.62852e-016 -20   XYZ
    dof rx
    limits (-90.0 20.0)
  end
  begin
     id 11 
     name lowerback
     direction 0.0288145 0.999398 -0.0193241   
     length 1.92149   
     axis 0 0 0   XYZ
    dof rx ry rz
    limits (-20.0 45.0)
           (-30.0 30.0)
           (-30.0 30.0)
  end
  begin
     id 12 
     name upperback
     direction 0.0233784 0.998099 0.0570278   
     length 1.90435   
     axis 0 0 0   XYZ
    dof rx ry rz
    limits (-20.0 45.0)
           (-30.0 30.0)
           (-30.0 30.0)
  end
  begin
     id 13 
     name thorax
     direction 0.0096694 0.997833 0.0650817   
     length 1.9111   
     axis 0 0 0   XYZ
    dof rx ry rz
    limits (-20.0 45.0)
           (-30.0 30.0)
           (-30.0 30.0)
  end
  begin
     id 14 
     name lowerneck
     direction 0.00516803 0.999916 0.0118722   
     length 1.74664   
     axis 0 0 0   XYZ
    dof rx ry rz
    limits (-20.0 45.0)
           (-30.0 30.0)
           (-30.0 30.0)
  end
  begin
     id 15 
     name upperneck
     direction -0.0510851 0.996117 -0.071696   
     length 1.68498   
     axis 0 0 0   XYZ
    dof rx ry rz
    limits (-20.0 45.0)
           (-30.0 30.0)
           (-30.0 30.0)
  end
  begin
     id 16
     name head
     direction -0.019188 0.999436 -0.0275702  
     length 1.83483  
     axis 0 0 0   XYZ
    dof rx ry rz
    limits (-20.0 45.0)
           (-30.0 30.0)
           (-30.0 30.0)
  end
  begin
     id 17 
     name lclavicle
     direction 0.967006 0.248456 -0.0562957  
     length 3.39395  
     axis 0 0 0   XYZ
    dof ry rz
    limits (-20.0 10.0)
           (0.0 20.0)
  end
  begin
     id 18 
     name lhumerus
     direction 1 -4.48962e-011 -5.62711e-019   
     length 5.24318   
     axis 180 -30 -90   XYZ
    dof rx ry rz
    limits (-60.0 90.0)
           (-90.0 90.0)
           (-90.0 90.0)
  end
  begin
     id 19
     name lradius
     direction 1 -4.48966e-011 7.90625e-027   
     length 2.98999   
     axis 180 -30 -90   XYZ
    dof rx
    limits (-10.0 170.0)
  end
  begin
     id 20
     name lwrist
     direction 1 -4.48959e-011 1.61068e-026   
     length 1.49499   
     axis -9.31229e-015 90 90   XYZ
    dof ry
    limits (-180.0 0.0)
 end
  begin
     id 21 
     name lhand
     direction 1 -4.49017e-011 3.22136e-026   
     length 0.726745   
     axis -2.0555e-014 90 90   XYZ
    dof rx rz
    limits (-90.0 90.0)
           (-45.0 45.0)
  end
  begin
     id 22 
     name lfingers
     direction 1 -4.4898e-011 6.44272e-026   
     length 0.58592   
     axis -4.11101e-014 90 90   XYZ
    dof rx
    limits (0.0 90.0)
  end
  begin
     id 23
     name lthumb
     direction 0.707107 -6.34922e-011 0.707107   
     length 0.841268   
     axis -90 45 2.85299e-015   XYZ
    dof rx rz
    limits (-45.0 45.0)
           (-45.0 45.0)
  end
  begin
     id 24 
     name rclavicle
     direction -0.972232 0.230238 0.0419005   
     length 3.40416  
     axis 0 0 0   XYZ 
    dof ry rz
    limits (-10.0 20.0)
           (-20.0 0.0)
  end
  begin
     id 25 
     name rhumerus
     direction -1 -4.48976e-011 2.48487e-027  
     length 5.37045   
     axis 180 30 90   XYZ
    dof rx ry rz
    limits (-90.0 60.0)
           (-90.0 90.0)
           (-90.0 90.0)
  end
  begin
     id 26 
     name rradius
     direction -1 -4.48942e-011 7.87951e-027   
     length 2.92792   
     axis 180 30 90   XYZ
    dof rx
    limits (-10.0 170.0)
  end
  begin
     id 27 
     name rwrist
     direction -1 -4.48969e-011 1.61068e-026   
     length 1.46396   
     axis -9.31229e-015 -90 -90   XYZ
    dof ry
    limits (-180.0 0.0)
  end
  begin
     id 28
     name rhand
     direction -1 -4.49043e-011 3.22136e-026   
     length 0.784497   
     axis -2.0555e-014 -90 -90   XYZ
    dof rx rz
    limits (-90.0 90.0)
           (-45.0 45.0)
  end
  begin
     id 29
     name rfingers
     direction -1 -4.48823e-011 6.44272e-026   
     length 0.632482   
     axis -4.11101e-014 -90 -90   XYZ
    dof rx
    limits (0.0 90.0)
  end
  begin
     id 30
     name rthumb
     direction -0.707107 -6.34923e-011 0.707107   
     length 0.908121   
     axis -90 -45 -2.85299e-015   XYZ
    dof rx rz
    limits (-45.0 45.0)
           (-45.0 45.0)
  end
:hierarchy
  begin
    root lhipjoint rhipjoint lowerback
    lhipjoint lfemur
    lfemur ltibia
    ltibia lfoot
    lfoot ltoes
    rhipjoint rfemur
    rfemur rtibia
    rtibia rfoot
    rfoot rtoes
    lowerback upperback
    upperback thorax
    thorax lowerneck lclavicle rclavicle
    lowerneck upperneck
    upperneck head
    lclavicle lhumerus
    lhumerus lradius
    lradius lwrist
    lwrist lhand lthumb
    lhand lfingers
    rclavicle rhumerus
    rhumerus rradius
    rradius rwrist
    rwrist rhand rthumb
    rhand rfingers
  end

#!OML:ASF E:\Style6\Style6.ASF
:FULLY-SPECIFIED
:DEGREES
198
root 0.325668 15.4807 0.698765 11.3834 -1.60281 -4.5483
lowerback 4.97308 -1.16815 0.34158
upperback -7.2733 -1.22907 3.53299
thorax -10.4833 -0.45717 3.77428
lowerneck -10.616 0.427143 3.28555
upperneck 18.9955 0.829934 -4.34365
head 7.61944 0.220259 -1.89641
rclavicle 1.22377e-014 -7.95139e-016
rhumerus -11.3224 -29.7238 3.63965
rradius 74.3319
rwrist 18.4787
rhand -4.17443 0.45577
rfingers 7.12502
rthumb 21.5864 -28.3611
lclavicle 1.22377e-014 -7.95139e-016
lhumerus -123.763 -53.9002 159.792
lradius 93.941
lwrist 25.2621
lhand -0.108993 6.90361
lfingers 7.12502
lthumb 25.486 35.2193
rfemur -45.9889 -13.0384 25.0579
rtibia 69.4985
rfoot -23.7069 16.2649
rtoes 13.3327
lfemur -45.3057 12.9188 -13.7583
ltibia 72.7973
lfoot -32.0306 0.260687
ltoes -28.7414
199
root 0.326339 15.4864 0.700661 11.3723 -1.61373 -4.5251
lowerback 5.03067 -1.18522 0.305951
upperback -7.28125 -1.25282 3.54996
thorax -10.5246 -0.464337 3.8186
lowerneck -10.5898 0.429794 3.24515
upperneck 18.9996 0.836377 -4.31661
head 7.61614 0.223162 -1.88008
rclavicle 6.05051e-015 7.95139e-015
rhumerus -11.3068 -29.5385 3.56468
rradius 74.3958
rwrist 18.339
rhand -4.17823 0.48494
rfingers 7.12502
rthumb 21.5828 -28.3324
lclavicle 6.05051e-015 7.95139e-015
lhumerus -123.744 -53.8447 159.824
lradius 93.9066
lwrist 25.238
lhand -0.153393 6.89818
lfingers 7.12502
lthumb 25.4434 35.22
rfemur -45.9502 -13.0544 25.0284
rtibia 69.4608
rfoot -23.7295 16.2288
rtoes 12.9599
lfemur -45.2517 12.937 -13.7932
ltibia 72.7473
lfoot -32.065 0.308992
ltoes -28.9891
200
root 0.327724 15.4874 0.701533 11.3689 -1.64195 -4.45116
lowerback 5.03093 -1.17116 0.233999
upperback -7.24972 -1.24247 3.54426
thorax -10.4886 -0.454682 3.85017
lowerneck -10.6162 0.418609 3.18124
upperneck 18.9645 0.828457 -4.30191
head 7.60882 0.216068 -1.86494
rclavicle -2.98177e-014 3.22031e-014
rhumerus -11.364 -29.4067 3.55717
rradius 74.4548
rwrist 18.2092
rhand -4.04199 0.57363
rfingers 7.12502
rthumb 21.7136 -28.2286
lclavicle -2.98177e-014 3.22031e-014
lhumerus -123.803 -53.8805 159.947
lradius 93.8707
lwrist 25.2115
lhand -0.197028 6.87249
lfingers 7.12502
lthumb 25.4016 35.2002
rfemur -45.9483 -13.0548 24.9366
rtibia 69.4397
rfoot -23.6664 16.2888
rtoes 13.0532
lfemur -45.2125 12.9296 -13.8916
ltibia 72.6986
lfoot -32.0324 0.528896
ltoes -29.4882
201
root 0.327738 15.4865 0.701192 11.376 -1.61476 -4.52051
lowerback 5.03174 -1.16637 0.30532
upperback -7.21972 -1.22784 3.56139
thorax -10.4575 -0.453045 3.82518
lowerneck -10.641 0.415452 3.15991
upperneck 18.8969 0.819416 -4.27006
head 7.59058 0.213229 -1.85103
rclavicle -2.83268e-015 1.94809e-014
rhumerus -11.4758 -29.2312 3.55825
rradius 74.5109
rwrist 18.0492
rhand -3.97294 0.512128
rfingers 7.12502
rthumb 21.7799 -28.2824
lclavicle -2.83268e-015 1.94809e-014
lhumerus -123.948 -53.935 160.122
lradius 93.8664
lwrist 25.2422
lhand -0.258536 6.87687
lfingers 7.12502
lthumb 25.3427 35.213
rfemur -45.9257 -13.0548 25.015
rtibia 69.4093
rfoot -23.7019 16.2942
rtoes 12.9643
lfemur -45.2283 12.9286 -13.8107
ltibia 72.6831
lfoot -32.0029 0.620665
ltoes -29.7461
202
root 0.327829 15.4917 0.703073 11.3735 -1.61389 -4.50956
lowerback 5.02758 -1.17577 0.305471
upperback -7.18529 -1.24316 3.5443
thorax -10.4156 -0.462252 3.807
lowerneck -10.6382 0.436734 3.24812
upperneck 18.8343 0.833189 -4.28312
head 7.57044 0.225089 -1.8681
rclavicle -3.20043e-014 3.97569e-015
rhumerus -11.5906 -28.9926 3.50254
rradius 74.6013
rwrist 17.7993
rhand -3.97973 0.360346
rfingers 7.12502
rthumb 21.7734 -28.435
lclavicle -3.20043e-014 3.97569e-015
lhumerus -123.976 -53.9909 160.15
lradius 93.8447
lwrist 25.2481
lhand -0.2607 6.90853
lfingers 7.12502
lthumb 25.3406 35.2449
rfemur -45.8842 -13.0679 24.9945
rtibia 69.3694
rfoot -23.6025 16.4375
rtoes 13.509
lfemur -45.1919 12.9498 -13.8267
ltibia 72.6491
lfoot -31.9971 0.58584
ltoes -29.6984
